<mxfile modified="2023-05-15T23:32:36.889Z" host="app.diagrams.net" agent="Mozilla/5.0 (Windows NT 10.0; Win64; x64) AppleWebKit/537.36 (KHTML, like Gecko) Chrome/113.0.0.0 Safari/537.36" etag="xetUpLf8YH11ww_-0BpE" version="21.3.2" type="github">
  <diagram id="gla63Dk0FSsQ5Y3dld1r" name="Page-1">
    <mxGraphModel dx="1050" dy="-286" grid="1" gridSize="10" guides="1" tooltips="1" connect="1" arrows="1" fold="1" page="1" pageScale="1" pageWidth="1169" pageHeight="827" math="0" shadow="0">
      <root>
        <mxCell id="0" />
        <mxCell id="1" parent="0" />
        <mxCell id="bTNue8S2Y31426Qi5J3i-1" value="IBM Cloud" style="shape=mxgraph.ibm.box;prType=cloud;fontStyle=0;verticalAlign=top;align=left;spacingLeft=32;spacingTop=4;fillColor=none;rounded=0;whiteSpace=wrap;html=1;strokeColor=#4376BB;strokeWidth=3;dashed=0;container=1;spacing=-4;collapsible=0;" parent="1" vertex="1">
          <mxGeometry x="190" y="910" width="818" height="697" as="geometry" />
        </mxCell>
        <mxCell id="bTNue8S2Y31426Qi5J3i-2" value="Region" style="shape=mxgraph.ibm.box;prType=region;fontStyle=0;verticalAlign=top;align=left;spacingLeft=32;spacingTop=4;fillColor=none;rounded=0;whiteSpace=wrap;html=1;strokeColor=#919191;strokeWidth=2;dashed=0;container=1;spacing=-4;collapsible=0;" parent="bTNue8S2Y31426Qi5J3i-1" vertex="1">
          <mxGeometry x="13" y="39" width="791" height="643" as="geometry" />
        </mxCell>
        <mxCell id="C-B6inx4KxPN2ot2ONpx-19" value="Classic Infrastructure" style="shape=mxgraph.ibm.box;prType=classic;fontStyle=0;verticalAlign=top;align=left;spacingLeft=32;spacingTop=-1;fillColor=none;rounded=0;whiteSpace=wrap;html=1;strokeColor=#4376BB;strokeWidth=2;dashed=0;container=1;spacing=-4;collapsible=0;labelBackgroundColor=none;fontColor=#000000;" parent="bTNue8S2Y31426Qi5J3i-2" vertex="1">
          <mxGeometry x="656" y="39" width="121" height="332" as="geometry" />
        </mxCell>
        <mxCell id="C-B6inx4KxPN2ot2ONpx-20" value="Classic Datacenter" style="shape=mxgraph.ibm.box;prType=zone;fontStyle=0;verticalAlign=top;align=left;spacingLeft=32;spacingTop=0;fillColor=#E0E0E0;rounded=0;whiteSpace=wrap;html=1;strokeColor=#919191;strokeWidth=1;dashed=0;container=1;spacing=-4;collapsible=0;labelBackgroundColor=none;fontColor=#000000;" parent="C-B6inx4KxPN2ot2ONpx-19" vertex="1">
          <mxGeometry x="14.5" y="40" width="92" height="278" as="geometry" />
        </mxCell>
        <mxCell id="C-B6inx4KxPN2ot2ONpx-21" value="&lt;div&gt;Classic&lt;/div&gt;&lt;div&gt;VSI&lt;/div&gt;" style="aspect=fixed;perimeter=ellipsePerimeter;html=1;align=center;shadow=0;dashed=0;image;image=img/lib/ibm/vpc/Instance.svg;dashPattern=1 1;fontColor=#000000;fontSize=12;labelPosition=center;verticalLabelPosition=bottom;verticalAlign=top;imageBackground=none;labelBackgroundColor=none;spacingTop=-6;" parent="C-B6inx4KxPN2ot2ONpx-20" vertex="1">
          <mxGeometry x="23.5" y="127" width="45" height="45" as="geometry" />
        </mxCell>
        <mxCell id="C-B6inx4KxPN2ot2ONpx-22" value="Bare Metal" style="aspect=fixed;perimeter=ellipsePerimeter;html=1;align=center;shadow=0;dashed=0;image;image=img/lib/ibm/vpc/BareMetalServer.svg;dashPattern=1 1;fontColor=#000000;fontSize=12;labelPosition=center;verticalLabelPosition=bottom;verticalAlign=top;imageBackground=none;labelBackgroundColor=none;spacingTop=-6;" parent="C-B6inx4KxPN2ot2ONpx-20" vertex="1">
          <mxGeometry x="23.5" y="210" width="45" height="45" as="geometry" />
        </mxCell>
        <mxCell id="C-B6inx4KxPN2ot2ONpx-23" value="Gateway&#xa;Appliance&#xa;" style="shape=image;verticalLabelPosition=bottom;labelBackgroundColor=none;verticalAlign=top;aspect=fixed;imageAspect=0;image=img/lib/ibm/vpc/GatewayAppliance.svg;labelPosition=center;align=center;spacingTop=-5;" parent="C-B6inx4KxPN2ot2ONpx-20" vertex="1">
          <mxGeometry x="23.5" y="40" width="45" height="45" as="geometry" />
        </mxCell>
        <mxCell id="bTNue8S2Y31426Qi5J3i-3" value="VPC" style="shape=mxgraph.ibm.box;prType=vpc;fontStyle=0;verticalAlign=top;align=left;spacingLeft=32;spacingTop=4;fillColor=none;rounded=0;whiteSpace=wrap;html=1;strokeColor=#4376BB;strokeWidth=2;dashed=0;container=1;spacing=-4;collapsible=0;" parent="bTNue8S2Y31426Qi5J3i-2" vertex="1">
          <mxGeometry x="14" y="39" width="619" height="589" as="geometry" />
        </mxCell>
        <mxCell id="bTNue8S2Y31426Qi5J3i-5" value="Zone 2&amp;nbsp; 10.20.0.0/18" style="shape=mxgraph.ibm.box;prType=zone;fontStyle=0;verticalAlign=top;align=left;spacingLeft=32;spacingTop=4;fillColor=#E0E0E0;rounded=0;whiteSpace=wrap;html=1;strokeColor=#919191;strokeWidth=1;dashed=0;container=1;spacing=-4;collapsible=0;" parent="bTNue8S2Y31426Qi5J3i-3" vertex="1">
          <mxGeometry x="382.5" y="37" width="222" height="537" as="geometry" />
        </mxCell>
        <mxCell id="bTNue8S2Y31426Qi5J3i-9" value="Subnet 10.20.40.0/24 : ACL 2" style="shape=mxgraph.ibm.box;prType=subnet;fontStyle=0;verticalAlign=top;align=left;spacingLeft=32;spacingTop=4;fillColor=#E6F0E2;rounded=0;whiteSpace=wrap;html=1;strokeColor=#00882B;strokeWidth=1;dashed=0;container=1;spacing=-4;collapsible=0;" parent="bTNue8S2Y31426Qi5J3i-5" vertex="1">
          <mxGeometry x="15.5" y="330" width="191" height="190" as="geometry" />
        </mxCell>
        <mxCell id="C-B6inx4KxPN2ot2ONpx-3" value="VSI" style="aspect=fixed;perimeter=ellipsePerimeter;html=1;align=center;shadow=0;dashed=0;image;image=img/lib/ibm/vpc/Instance.svg;dashPattern=1 1;fontColor=#000000;fontSize=12;labelPosition=center;verticalLabelPosition=bottom;verticalAlign=top;imageBackground=none;labelBackgroundColor=none;spacingTop=-6;spacingLeft=23;" parent="bTNue8S2Y31426Qi5J3i-9" vertex="1">
          <mxGeometry x="30" y="90" width="45" height="45" as="geometry" />
        </mxCell>
        <mxCell id="C-B6inx4KxPN2ot2ONpx-4" value="VSI" style="aspect=fixed;perimeter=ellipsePerimeter;html=1;align=center;shadow=0;dashed=0;image;image=img/lib/ibm/vpc/Instance.svg;dashPattern=1 1;fontColor=#000000;fontSize=12;labelPosition=center;verticalLabelPosition=bottom;verticalAlign=top;imageBackground=none;labelBackgroundColor=none;spacingTop=-6;spacingLeft=23;" parent="bTNue8S2Y31426Qi5J3i-9" vertex="1">
          <mxGeometry x="90" y="89" width="45" height="45" as="geometry" />
        </mxCell>
        <mxCell id="C-B6inx4KxPN2ot2ONpx-112" value="&lt;div&gt;RG 3&lt;/div&gt;" style="fontStyle=0;verticalAlign=top;align=center;spacingTop=-5;fillColor=none;rounded=0;whiteSpace=wrap;html=1;strokeColor=#919191;strokeWidth=2;dashed=1;container=1;collapsible=0;spacingLeft=99;" parent="bTNue8S2Y31426Qi5J3i-9" vertex="1">
          <mxGeometry x="15" y="67.5" width="139" height="90" as="geometry" />
        </mxCell>
        <mxCell id="bTNue8S2Y31426Qi5J3i-8" value="Subnet 10.20.30.0/24 : ACL 1" style="shape=mxgraph.ibm.box;prType=subnet;fontStyle=0;verticalAlign=top;align=left;spacingLeft=32;spacingTop=4;fillColor=#E6F0E2;rounded=0;whiteSpace=wrap;html=1;strokeColor=#00882B;strokeWidth=1;dashed=0;container=1;spacing=-4;collapsible=0;" parent="bTNue8S2Y31426Qi5J3i-5" vertex="1">
          <mxGeometry x="15.5" y="64" width="191" height="206" as="geometry" />
        </mxCell>
        <mxCell id="C-B6inx4KxPN2ot2ONpx-5" value="VSI" style="aspect=fixed;perimeter=ellipsePerimeter;html=1;align=center;shadow=0;dashed=0;image;image=img/lib/ibm/vpc/Instance.svg;dashPattern=1 1;fontColor=#000000;fontSize=12;labelPosition=center;verticalLabelPosition=bottom;verticalAlign=top;imageBackground=none;labelBackgroundColor=none;spacingTop=-6;spacingLeft=23;" parent="bTNue8S2Y31426Qi5J3i-8" vertex="1">
          <mxGeometry x="23" y="80.5" width="45" height="45" as="geometry" />
        </mxCell>
        <mxCell id="C-B6inx4KxPN2ot2ONpx-6" value="VSI" style="aspect=fixed;perimeter=ellipsePerimeter;html=1;align=center;shadow=0;dashed=0;image;image=img/lib/ibm/vpc/Instance.svg;dashPattern=1 1;fontColor=#000000;fontSize=12;labelPosition=center;verticalLabelPosition=bottom;verticalAlign=top;imageBackground=none;labelBackgroundColor=none;spacingTop=-6;spacingLeft=23;" parent="bTNue8S2Y31426Qi5J3i-8" vertex="1">
          <mxGeometry x="83" y="80.5" width="45" height="45" as="geometry" />
        </mxCell>
        <mxCell id="C-B6inx4KxPN2ot2ONpx-110" value="RG 1" style="fontStyle=0;verticalAlign=top;align=center;spacingTop=-6;fillColor=none;rounded=0;whiteSpace=wrap;html=1;strokeColor=#919191;strokeWidth=2;dashed=1;container=1;collapsible=0;spacingLeft=98;spacingBottom=0;" parent="bTNue8S2Y31426Qi5J3i-8" vertex="1">
          <mxGeometry x="15" y="66" width="146" height="87" as="geometry" />
        </mxCell>
        <mxCell id="C-B6inx4KxPN2ot2ONpx-17" value="&lt;div&gt;Public &lt;br&gt;&lt;/div&gt;&lt;div&gt;Load &lt;br&gt;&lt;/div&gt;&lt;div&gt;Balancer&lt;/div&gt;" style="aspect=fixed;perimeter=ellipsePerimeter;html=1;align=center;shadow=0;dashed=0;image;image=img/lib/ibm/vpc/LoadBalancer.svg;labelPosition=center;verticalLabelPosition=top;verticalAlign=bottom;fontSize=12;spacingLeft=-1;labelBackgroundColor=none;" parent="bTNue8S2Y31426Qi5J3i-3" vertex="1">
          <mxGeometry x="331" y="52" width="40" height="40" as="geometry" />
        </mxCell>
        <mxCell id="C-B6inx4KxPN2ot2ONpx-18" value="&lt;div&gt;Private &lt;br&gt;&lt;/div&gt;&lt;div&gt;Load Balancer&lt;/div&gt;" style="aspect=fixed;perimeter=ellipsePerimeter;html=1;align=left;shadow=0;dashed=0;image;image=img/lib/ibm/vpc/LoadBalancer.svg;labelPosition=right;verticalLabelPosition=middle;verticalAlign=middle;fontSize=12;spacingBottom=22;spacingTop=9;labelBackgroundColor=none;spacingLeft=11;" parent="bTNue8S2Y31426Qi5J3i-3" vertex="1">
          <mxGeometry x="333" y="321" width="40" height="40" as="geometry" />
        </mxCell>
        <mxCell id="bTNue8S2Y31426Qi5J3i-4" value="Zone 1&amp;nbsp; 10.10.0.0/18" style="shape=mxgraph.ibm.box;prType=zone;fontStyle=0;verticalAlign=top;align=left;spacingLeft=32;spacingTop=4;fillColor=#E0E0E0;rounded=0;whiteSpace=wrap;html=1;strokeColor=#919191;strokeWidth=1;dashed=0;container=1;spacing=-4;collapsible=0;" parent="bTNue8S2Y31426Qi5J3i-3" vertex="1">
          <mxGeometry x="13" y="37" width="305" height="538" as="geometry" />
        </mxCell>
        <mxCell id="bTNue8S2Y31426Qi5J3i-7" value="Subnet 10.10.20.0/24 : ACL 2" style="shape=mxgraph.ibm.box;prType=subnet;fontStyle=0;verticalAlign=top;align=left;spacingLeft=32;spacingTop=4;fillColor=#E6F0E2;rounded=0;whiteSpace=wrap;html=1;strokeColor=#00882B;strokeWidth=1;dashed=0;container=1;spacing=-4;collapsible=0;" parent="bTNue8S2Y31426Qi5J3i-4" vertex="1">
          <mxGeometry x="90.5" y="332" width="198" height="190" as="geometry" />
        </mxCell>
        <mxCell id="C-B6inx4KxPN2ot2ONpx-1" value="VSI" style="aspect=fixed;perimeter=ellipsePerimeter;html=1;align=center;shadow=0;dashed=0;image;image=img/lib/ibm/vpc/Instance.svg;dashPattern=1 1;fontColor=#000000;fontSize=12;labelPosition=center;verticalLabelPosition=bottom;verticalAlign=top;imageBackground=none;labelBackgroundColor=none;spacingTop=-6;" parent="bTNue8S2Y31426Qi5J3i-7" vertex="1">
          <mxGeometry x="66.5" y="90" width="45" height="45" as="geometry" />
        </mxCell>
        <mxCell id="C-B6inx4KxPN2ot2ONpx-2" value="VSI" style="aspect=fixed;perimeter=ellipsePerimeter;html=1;align=center;shadow=0;dashed=0;image;image=img/lib/ibm/vpc/Instance.svg;dashPattern=1 1;fontColor=#000000;fontSize=12;labelPosition=center;verticalLabelPosition=bottom;verticalAlign=top;imageBackground=none;labelBackgroundColor=none;spacingTop=-6;" parent="bTNue8S2Y31426Qi5J3i-7" vertex="1">
          <mxGeometry x="126.5" y="90" width="45" height="45" as="geometry" />
        </mxCell>
        <mxCell id="C-B6inx4KxPN2ot2ONpx-111" value="RG 2" style="fontStyle=0;verticalAlign=top;align=center;spacingTop=-5;fillColor=none;rounded=0;whiteSpace=wrap;html=1;strokeColor=#919191;strokeWidth=2;dashed=1;container=1;collapsible=0;spacingLeft=-118;" parent="bTNue8S2Y31426Qi5J3i-7" vertex="1">
          <mxGeometry x="29.5" y="66" width="153" height="93" as="geometry" />
        </mxCell>
        <mxCell id="C-B6inx4KxPN2ot2ONpx-9" value="&lt;div&gt;Public &lt;br&gt;&lt;/div&gt;&lt;div&gt;Gateway&lt;/div&gt;" style="aspect=fixed;perimeter=ellipsePerimeter;html=1;align=center;shadow=0;dashed=0;image;image=img/lib/ibm/vpc/PublicGateway.svg;fontColor=#000000;labelPosition=center;verticalLabelPosition=bottom;verticalAlign=top;fontSize=12;flipH=1;labelBackgroundColor=none;spacingTop=-6;" parent="bTNue8S2Y31426Qi5J3i-4" vertex="1">
          <mxGeometry x="20" y="96" width="40" height="40" as="geometry" />
        </mxCell>
        <mxCell id="C-B6inx4KxPN2ot2ONpx-16" value="VPN &#xa;Gateway" style="shape=image;verticalLabelPosition=bottom;verticalAlign=top;aspect=fixed;image=img/lib/ibm/vpc/VPNGateway.svg;fontColor=#000000;labelPosition=center;align=center;fontSize=12;spacingTop=-6;" parent="bTNue8S2Y31426Qi5J3i-4" vertex="1">
          <mxGeometry x="20" y="232" width="40" height="40" as="geometry" />
        </mxCell>
        <mxCell id="bTNue8S2Y31426Qi5J3i-6" value="Subnet 10.10.10.0/24 : ACL 1" style="shape=mxgraph.ibm.box;prType=subnet;fontStyle=0;verticalAlign=top;align=left;spacingLeft=32;spacingTop=4;fillColor=#E6F0E2;rounded=0;whiteSpace=wrap;html=1;strokeColor=#00882B;strokeWidth=1;dashed=0;container=1;spacing=-4;collapsible=0;" parent="bTNue8S2Y31426Qi5J3i-4" vertex="1">
          <mxGeometry x="90.5" y="63" width="200" height="206" as="geometry" />
        </mxCell>
        <mxCell id="C-B6inx4KxPN2ot2ONpx-7" value="VSI" style="aspect=fixed;perimeter=ellipsePerimeter;html=1;align=center;shadow=0;dashed=0;image;image=img/lib/ibm/vpc/Instance.svg;dashPattern=1 1;fontColor=#000000;fontSize=12;labelPosition=center;verticalLabelPosition=bottom;verticalAlign=top;imageBackground=none;labelBackgroundColor=none;spacingTop=-6;spacingLeft=23;" parent="bTNue8S2Y31426Qi5J3i-6" vertex="1">
          <mxGeometry x="70" y="80.5" width="45" height="45" as="geometry" />
        </mxCell>
        <mxCell id="C-B6inx4KxPN2ot2ONpx-8" value="VSI" style="aspect=fixed;perimeter=ellipsePerimeter;html=1;align=center;shadow=0;dashed=0;image;image=img/lib/ibm/vpc/Instance.svg;dashPattern=1 1;fontColor=#000000;fontSize=12;labelPosition=center;verticalLabelPosition=bottom;verticalAlign=top;imageBackground=none;labelBackgroundColor=none;spacingTop=-6;spacingLeft=24;" parent="bTNue8S2Y31426Qi5J3i-6" vertex="1">
          <mxGeometry x="127.5" y="80.5" width="45" height="45" as="geometry" />
        </mxCell>
        <mxCell id="C-B6inx4KxPN2ot2ONpx-24" value="&lt;div&gt;Floating &lt;br&gt;&lt;/div&gt;&lt;div&gt;IP&lt;/div&gt;" style="aspect=fixed;perimeter=ellipsePerimeter;html=1;align=center;shadow=0;dashed=0;image;image=img/lib/ibm/vpc/FloatingIP.svg;fontColor=#000000;labelPosition=center;verticalLabelPosition=bottom;verticalAlign=top;fontSize=12;spacingLeft=-1;spacingTop=-19;spacingBottom=-20;rotation=0;textDirection=rtl;flipH=0;flipV=1;direction=west;labelBackgroundColor=none;" parent="bTNue8S2Y31426Qi5J3i-6" vertex="1">
          <mxGeometry x="33" y="88.5" width="37" height="37" as="geometry" />
        </mxCell>
        <mxCell id="C-B6inx4KxPN2ot2ONpx-50" value="" style="html=1;labelBackgroundColor=#ffffff;endArrow=classic;endFill=1;endSize=6;jettySize=auto;orthogonalLoop=1;strokeWidth=1;fontSize=14;" parent="bTNue8S2Y31426Qi5J3i-6" edge="1">
          <mxGeometry width="60" height="60" relative="1" as="geometry">
            <mxPoint x="-0.5" y="52" as="sourcePoint" />
            <mxPoint x="-32" y="52" as="targetPoint" />
          </mxGeometry>
        </mxCell>
        <mxCell id="C-B6inx4KxPN2ot2ONpx-107" value="RG 1" style="fontStyle=0;verticalAlign=top;align=center;spacingTop=-2;fillColor=none;rounded=0;whiteSpace=wrap;html=1;strokeColor=#919191;strokeWidth=2;dashed=1;container=1;collapsible=0;spacingLeft=-123;" parent="bTNue8S2Y31426Qi5J3i-6" vertex="1">
          <mxGeometry x="20" y="65" width="161" height="88" as="geometry" />
        </mxCell>
        <mxCell id="C-B6inx4KxPN2ot2ONpx-52" value="" style="html=1;labelBackgroundColor=#ffffff;startArrow=classic;startFill=1;startSize=6;endArrow=classic;endFill=1;endSize=6;jettySize=auto;orthogonalLoop=1;strokeWidth=1;fontSize=14;" parent="bTNue8S2Y31426Qi5J3i-4" edge="1">
          <mxGeometry width="60" height="60" relative="1" as="geometry">
            <mxPoint x="60" y="252" as="sourcePoint" />
            <mxPoint x="91" y="252" as="targetPoint" />
          </mxGeometry>
        </mxCell>
        <mxCell id="C-B6inx4KxPN2ot2ONpx-56" value="" style="edgeStyle=elbowEdgeStyle;rounded=0;elbow=vertical;html=1;labelBackgroundColor=#ffffff;startArrow=classic;startFill=1;startSize=6;endArrow=classic;endFill=1;endSize=6;jettySize=auto;orthogonalLoop=1;strokeWidth=1;fontSize=14;exitX=1;exitY=0.25;exitDx=0;exitDy=0;" parent="bTNue8S2Y31426Qi5J3i-4" source="C-B6inx4KxPN2ot2ONpx-31" edge="1">
          <mxGeometry width="60" height="60" relative="1" as="geometry">
            <mxPoint x="260" y="96" as="sourcePoint" />
            <mxPoint x="318" y="36" as="targetPoint" />
            <Array as="points">
              <mxPoint x="130" y="36" />
            </Array>
          </mxGeometry>
        </mxCell>
        <mxCell id="C-B6inx4KxPN2ot2ONpx-51" value="" style="html=1;labelBackgroundColor=#ffffff;endArrow=classic;endFill=1;endSize=6;jettySize=auto;orthogonalLoop=1;strokeWidth=1;fontSize=14;" parent="bTNue8S2Y31426Qi5J3i-3" edge="1">
          <mxGeometry width="60" height="60" relative="1" as="geometry">
            <mxPoint x="33" y="152" as="sourcePoint" />
            <mxPoint x="-48" y="152" as="targetPoint" />
          </mxGeometry>
        </mxCell>
        <mxCell id="C-B6inx4KxPN2ot2ONpx-53" value="" style="html=1;labelBackgroundColor=#ffffff;startArrow=classic;startFill=1;startSize=6;endArrow=classic;endFill=1;endSize=6;jettySize=auto;orthogonalLoop=1;strokeWidth=1;fontSize=14;" parent="bTNue8S2Y31426Qi5J3i-3" edge="1">
          <mxGeometry width="60" height="60" relative="1" as="geometry">
            <mxPoint x="-56" y="289" as="sourcePoint" />
            <mxPoint x="33" y="289" as="targetPoint" />
          </mxGeometry>
        </mxCell>
        <mxCell id="C-B6inx4KxPN2ot2ONpx-96" style="edgeStyle=orthogonalEdgeStyle;rounded=0;orthogonalLoop=1;jettySize=auto;html=1;exitX=0.5;exitY=0;exitDx=0;exitDy=0;endArrow=none;endFill=0;fontColor=#000000;" parent="bTNue8S2Y31426Qi5J3i-3" source="C-B6inx4KxPN2ot2ONpx-7" target="C-B6inx4KxPN2ot2ONpx-17" edge="1">
          <mxGeometry relative="1" as="geometry">
            <Array as="points">
              <mxPoint x="196" y="132" />
              <mxPoint x="351" y="132" />
            </Array>
          </mxGeometry>
        </mxCell>
        <mxCell id="C-B6inx4KxPN2ot2ONpx-97" style="edgeStyle=orthogonalEdgeStyle;rounded=0;orthogonalLoop=1;jettySize=auto;html=1;exitX=0.5;exitY=0;exitDx=0;exitDy=0;entryX=0.5;entryY=1;entryDx=0;entryDy=0;endArrow=none;endFill=0;fontColor=#000000;" parent="bTNue8S2Y31426Qi5J3i-3" source="C-B6inx4KxPN2ot2ONpx-6" target="C-B6inx4KxPN2ot2ONpx-17" edge="1">
          <mxGeometry relative="1" as="geometry">
            <Array as="points">
              <mxPoint x="504" y="132" />
              <mxPoint x="351" y="132" />
            </Array>
          </mxGeometry>
        </mxCell>
        <mxCell id="C-B6inx4KxPN2ot2ONpx-100" value="" style="edgeStyle=orthogonalEdgeStyle;rounded=0;orthogonalLoop=1;jettySize=auto;html=1;endArrow=none;endFill=0;fontColor=#000000;entryX=0.5;entryY=1;entryDx=0;entryDy=0;" parent="bTNue8S2Y31426Qi5J3i-3" source="C-B6inx4KxPN2ot2ONpx-8" target="C-B6inx4KxPN2ot2ONpx-17" edge="1">
          <mxGeometry relative="1" as="geometry">
            <mxPoint x="253.5" y="130" as="targetPoint" />
            <Array as="points">
              <mxPoint x="254" y="132" />
              <mxPoint x="351" y="132" />
            </Array>
          </mxGeometry>
        </mxCell>
        <mxCell id="C-B6inx4KxPN2ot2ONpx-101" style="edgeStyle=orthogonalEdgeStyle;rounded=0;orthogonalLoop=1;jettySize=auto;html=1;exitX=0.5;exitY=0;exitDx=0;exitDy=0;endArrow=none;endFill=0;fontColor=#000000;" parent="bTNue8S2Y31426Qi5J3i-3" source="C-B6inx4KxPN2ot2ONpx-5" target="C-B6inx4KxPN2ot2ONpx-17" edge="1">
          <mxGeometry relative="1" as="geometry">
            <Array as="points">
              <mxPoint x="444" y="132" />
              <mxPoint x="351" y="132" />
            </Array>
          </mxGeometry>
        </mxCell>
        <mxCell id="C-B6inx4KxPN2ot2ONpx-102" style="edgeStyle=orthogonalEdgeStyle;rounded=0;orthogonalLoop=1;jettySize=auto;html=1;exitX=0.5;exitY=0;exitDx=0;exitDy=0;endArrow=none;endFill=0;fontColor=#000000;" parent="bTNue8S2Y31426Qi5J3i-3" source="C-B6inx4KxPN2ot2ONpx-1" target="C-B6inx4KxPN2ot2ONpx-18" edge="1">
          <mxGeometry relative="1" as="geometry">
            <Array as="points">
              <mxPoint x="193" y="402" />
              <mxPoint x="353" y="402" />
            </Array>
          </mxGeometry>
        </mxCell>
        <mxCell id="C-B6inx4KxPN2ot2ONpx-105" value="" style="edgeStyle=orthogonalEdgeStyle;rounded=0;orthogonalLoop=1;jettySize=auto;html=1;endArrow=none;endFill=0;fontColor=#000000;entryX=0.5;entryY=1;entryDx=0;entryDy=0;" parent="bTNue8S2Y31426Qi5J3i-3" source="C-B6inx4KxPN2ot2ONpx-2" target="C-B6inx4KxPN2ot2ONpx-18" edge="1">
          <mxGeometry relative="1" as="geometry">
            <mxPoint x="345.5" y="447" as="targetPoint" />
            <Array as="points">
              <mxPoint x="253" y="402" />
              <mxPoint x="353" y="402" />
            </Array>
          </mxGeometry>
        </mxCell>
        <mxCell id="C-B6inx4KxPN2ot2ONpx-106" style="edgeStyle=orthogonalEdgeStyle;rounded=0;orthogonalLoop=1;jettySize=auto;html=1;exitX=0.5;exitY=0;exitDx=0;exitDy=0;entryX=0.5;entryY=1;entryDx=0;entryDy=0;endArrow=none;endFill=0;fontColor=#000000;" parent="bTNue8S2Y31426Qi5J3i-3" source="C-B6inx4KxPN2ot2ONpx-3" target="C-B6inx4KxPN2ot2ONpx-18" edge="1">
          <mxGeometry relative="1" as="geometry">
            <Array as="points">
              <mxPoint x="451" y="402" />
              <mxPoint x="353" y="402" />
            </Array>
          </mxGeometry>
        </mxCell>
        <mxCell id="C-B6inx4KxPN2ot2ONpx-115" style="edgeStyle=orthogonalEdgeStyle;rounded=0;orthogonalLoop=1;jettySize=auto;html=1;exitX=0.5;exitY=1;exitDx=0;exitDy=0;entryX=0.5;entryY=0;entryDx=0;entryDy=0;endArrow=none;endFill=0;fontColor=#000000;" parent="bTNue8S2Y31426Qi5J3i-3" source="C-B6inx4KxPN2ot2ONpx-7" target="C-B6inx4KxPN2ot2ONpx-18" edge="1">
          <mxGeometry relative="1" as="geometry">
            <Array as="points">
              <mxPoint x="196" y="292" />
              <mxPoint x="353" y="292" />
            </Array>
          </mxGeometry>
        </mxCell>
        <mxCell id="C-B6inx4KxPN2ot2ONpx-25" value="&lt;div&gt;Direct &lt;br&gt;&lt;/div&gt;&lt;div&gt;Link&lt;/div&gt;" style="aspect=fixed;perimeter=ellipsePerimeter;html=1;align=right;shadow=0;dashed=0;image;image=img/lib/ibm/vpc/DirectLink.svg;fontSize=12;labelPosition=left;verticalLabelPosition=middle;verticalAlign=middle;" parent="bTNue8S2Y31426Qi5J3i-2" vertex="1">
          <mxGeometry x="696.5" y="441" width="40" height="40" as="geometry" />
        </mxCell>
        <mxCell id="C-B6inx4KxPN2ot2ONpx-28" value="&lt;div&gt;Implicit &lt;br&gt;&lt;/div&gt;&lt;div&gt;Router&lt;/div&gt;" style="aspect=fixed;perimeter=ellipsePerimeter;html=1;align=center;shadow=0;dashed=0;image;image=img/lib/ibm/vpc/Router.svg;spacingTop=-5;" parent="bTNue8S2Y31426Qi5J3i-2" vertex="1">
          <mxGeometry x="695" y="563" width="40" height="40" as="geometry" />
        </mxCell>
        <mxCell id="C-B6inx4KxPN2ot2ONpx-63" value="" style="html=1;labelBackgroundColor=#ffffff;startArrow=classic;startFill=1;startSize=6;endArrow=classic;endFill=1;endSize=6;jettySize=auto;orthogonalLoop=1;strokeWidth=1;fontSize=14;" parent="bTNue8S2Y31426Qi5J3i-2" edge="1">
          <mxGeometry width="60" height="60" relative="1" as="geometry">
            <mxPoint x="716" y="441" as="sourcePoint" />
            <mxPoint x="716" y="374" as="targetPoint" />
          </mxGeometry>
        </mxCell>
        <mxCell id="C-B6inx4KxPN2ot2ONpx-65" value="" style="html=1;labelBackgroundColor=#ffffff;startArrow=classic;startFill=1;startSize=6;endArrow=classic;endFill=1;endSize=6;jettySize=auto;orthogonalLoop=1;strokeWidth=1;fontSize=14;" parent="bTNue8S2Y31426Qi5J3i-2" edge="1">
          <mxGeometry width="60" height="60" relative="1" as="geometry">
            <mxPoint x="716" y="561" as="sourcePoint" />
            <mxPoint x="716" y="483" as="targetPoint" />
          </mxGeometry>
        </mxCell>
        <mxCell id="C-B6inx4KxPN2ot2ONpx-93" value="" style="html=1;labelBackgroundColor=#ffffff;startArrow=classic;startFill=1;startSize=6;endArrow=classic;endFill=1;endSize=6;jettySize=auto;orthogonalLoop=1;strokeWidth=1;fontSize=14;exitX=1;exitY=0.5;exitDx=0;exitDy=0;" parent="bTNue8S2Y31426Qi5J3i-2" edge="1">
          <mxGeometry width="60" height="60" relative="1" as="geometry">
            <mxPoint x="633" y="582.5" as="sourcePoint" />
            <mxPoint x="696" y="583" as="targetPoint" />
          </mxGeometry>
        </mxCell>
        <mxCell id="C-B6inx4KxPN2ot2ONpx-40" value="&lt;div&gt;Public&lt;/div&gt;&lt;div&gt; Network&lt;/div&gt;" style="shape=mxgraph.ibm.box;prType=public;fontStyle=0;verticalAlign=top;align=left;spacingLeft=32;spacingTop=0;fillColor=none;rounded=0;whiteSpace=wrap;html=1;strokeColor=#4376BB;strokeWidth=3;dashed=0;container=1;spacing=-4;collapsible=0;labelBackgroundColor=none;fontColor=#000000;" parent="1" vertex="1">
          <mxGeometry x="88" y="910" width="102" height="697" as="geometry" />
        </mxCell>
        <mxCell id="C-B6inx4KxPN2ot2ONpx-39" value="VPN&#xa;Connection&#xa;" style="shape=image;verticalLabelPosition=bottom;verticalAlign=top;aspect=fixed;image=img/lib/ibm/vpc/VPNConnection.svg;fontColor=#000000;labelPosition=center;align=center;fontSize=12;spacingTop=-5;" parent="C-B6inx4KxPN2ot2ONpx-40" vertex="1">
          <mxGeometry x="34" y="349" width="40" height="40" as="geometry" />
        </mxCell>
        <mxCell id="C-B6inx4KxPN2ot2ONpx-36" value="User" style="aspect=fixed;perimeter=ellipsePerimeter;html=1;align=center;shadow=0;dashed=0;image;image=img/lib/ibm/users/user.svg;spacingTop=-5;labelPosition=center;verticalLabelPosition=top;verticalAlign=bottom;" parent="C-B6inx4KxPN2ot2ONpx-40" vertex="1">
          <mxGeometry x="31" y="88" width="40" height="40" as="geometry" />
        </mxCell>
        <mxCell id="C-B6inx4KxPN2ot2ONpx-31" value="Internet" style="aspect=fixed;perimeter=ellipsePerimeter;html=1;align=center;shadow=0;dashed=0;image;image=img/lib/ibm/vpc/Internet.svg;labelPosition=center;verticalLabelPosition=bottom;verticalAlign=top;fontSize=12;spacingTop=-5;" parent="C-B6inx4KxPN2ot2ONpx-40" vertex="1">
          <mxGeometry x="22" y="199" width="60" height="60" as="geometry" />
        </mxCell>
        <mxCell id="C-B6inx4KxPN2ot2ONpx-46" value="&lt;font style=&quot;font-size: 10px&quot;&gt;Shows primary &lt;br&gt;&lt;/font&gt;&lt;div style=&quot;font-size: 10px&quot;&gt;&lt;font style=&quot;font-size: 10px&quot;&gt;interface for VSIs &lt;br&gt;&lt;/font&gt;&lt;/div&gt;&lt;div style=&quot;font-size: 10px&quot;&gt;&lt;font style=&quot;font-size: 10px&quot;&gt;in subnet and &lt;br&gt;&lt;/font&gt;&lt;/div&gt;&lt;div style=&quot;font-size: 10px&quot;&gt;&lt;font style=&quot;font-size: 10px&quot;&gt;security group &lt;br&gt;&lt;/font&gt;&lt;/div&gt;&lt;div style=&quot;font-size: 10px&quot;&gt;&lt;font style=&quot;font-size: 10px&quot;&gt;shown, and VPC &lt;br&gt;&lt;/font&gt;&lt;/div&gt;&lt;div style=&quot;font-size: 10px&quot;&gt;&lt;font style=&quot;font-size: 10px&quot;&gt;enabled for &lt;br&gt;&lt;/font&gt;&lt;/div&gt;&lt;div style=&quot;font-size: 10px&quot;&gt;&lt;font style=&quot;font-size: 10px&quot;&gt;Classic Access.&lt;br&gt;&lt;/font&gt;&lt;/div&gt;&lt;div style=&quot;font-size: 10px&quot;&gt;&lt;font style=&quot;font-size: 10px&quot;&gt;&lt;br&gt;&lt;/font&gt;&lt;/div&gt;&lt;div style=&quot;font-size: 10px&quot;&gt;&lt;font style=&quot;font-size: 10px&quot;&gt;Each VSI can have&lt;/font&gt;&lt;/div&gt;&lt;div style=&quot;font-size: 10px&quot;&gt;&lt;font style=&quot;font-size: 10px&quot;&gt;multiple interfaces&lt;br&gt;&lt;/font&gt;&lt;/div&gt;&lt;div style=&quot;font-size: 10px&quot;&gt;&lt;font style=&quot;font-size: 10px&quot;&gt;in &lt;/font&gt;&lt;font style=&quot;font-size: 10px&quot;&gt;same or other &lt;br&gt;&lt;/font&gt;&lt;/div&gt;&lt;div style=&quot;font-size: 10px&quot;&gt;&lt;font style=&quot;font-size: 10px&quot;&gt;subnet and each &lt;br&gt;&lt;/font&gt;&lt;/div&gt;&lt;div style=&quot;font-size: 10px&quot;&gt;&lt;font style=&quot;font-size: 10px&quot;&gt;interface can&lt;/font&gt;&lt;/div&gt;&lt;div style=&quot;font-size: 10px&quot;&gt;&lt;font style=&quot;font-size: 10px&quot;&gt;be in multiple &lt;br&gt;&lt;/font&gt;&lt;/div&gt;&lt;div style=&quot;font-size: 10px&quot;&gt;&lt;font style=&quot;font-size: 10px&quot;&gt;security &lt;/font&gt;&lt;font style=&quot;font-size: 10px&quot;&gt;groups.&lt;/font&gt;&lt;/div&gt;&lt;div style=&quot;font-size: 10px&quot;&gt;&lt;font style=&quot;font-size: 10px&quot;&gt;&amp;nbsp; &lt;/font&gt;&lt;/div&gt;" style="text;html=1;resizable=0;autosize=1;align=center;verticalAlign=middle;points=[];fillColor=none;strokeColor=none;rounded=0;labelBackgroundColor=none;fontColor=#000000;" parent="C-B6inx4KxPN2ot2ONpx-40" vertex="1">
          <mxGeometry y="450" width="100" height="230" as="geometry" />
        </mxCell>
        <mxCell id="C-B6inx4KxPN2ot2ONpx-57" value="" style="html=1;labelBackgroundColor=#ffffff;startArrow=classic;startFill=1;startSize=6;endArrow=classic;endFill=1;endSize=6;jettySize=auto;orthogonalLoop=1;strokeWidth=1;fontSize=14;" parent="C-B6inx4KxPN2ot2ONpx-40" edge="1">
          <mxGeometry width="60" height="60" relative="1" as="geometry">
            <mxPoint x="53.5" y="349" as="sourcePoint" />
            <mxPoint x="53.5" y="277" as="targetPoint" />
          </mxGeometry>
        </mxCell>
        <mxCell id="C-B6inx4KxPN2ot2ONpx-61" value="" style="html=1;labelBackgroundColor=#ffffff;startArrow=classic;startFill=1;startSize=6;endArrow=classic;endFill=1;endSize=6;jettySize=auto;orthogonalLoop=1;strokeWidth=1;fontSize=14;" parent="C-B6inx4KxPN2ot2ONpx-40" edge="1">
          <mxGeometry width="60" height="60" relative="1" as="geometry">
            <mxPoint x="51.5" y="199" as="sourcePoint" />
            <mxPoint x="51.5" y="127" as="targetPoint" />
          </mxGeometry>
        </mxCell>
        <mxCell id="C-B6inx4KxPN2ot2ONpx-42" value="Enterprise Network" style="shape=mxgraph.ibm.box;prType=enterprise;fontStyle=0;verticalAlign=top;align=left;spacingLeft=32;spacingTop=0;fillColor=none;rounded=0;whiteSpace=wrap;html=1;strokeColor=#4376BB;strokeWidth=3;dashed=0;container=1;spacing=-4;collapsible=0;labelBackgroundColor=none;fontColor=#000000;" parent="1" vertex="1">
          <mxGeometry x="1008" y="910" width="102" height="697" as="geometry" />
        </mxCell>
        <mxCell id="C-B6inx4KxPN2ot2ONpx-41" value="&lt;div&gt;Enterprise&lt;/div&gt;&lt;div&gt;User Directory&lt;br&gt;&lt;/div&gt;" style="aspect=fixed;perimeter=ellipsePerimeter;html=1;align=center;shadow=0;dashed=0;image;image=img/lib/ibm/data/enterprise_user_directory.svg;fontColor=#000000;spacingTop=-5;" parent="C-B6inx4KxPN2ot2ONpx-42" vertex="1">
          <mxGeometry x="31" y="197" width="40" height="40" as="geometry" />
        </mxCell>
        <mxCell id="C-B6inx4KxPN2ot2ONpx-43" value="&lt;div&gt;Enterprise&lt;/div&gt;&lt;div&gt;Applications&lt;br&gt;&lt;/div&gt;" style="aspect=fixed;perimeter=ellipsePerimeter;html=1;align=center;shadow=0;dashed=0;image;image=img/lib/ibm/applications/enterprise_applications.svg;spacingTop=-5;" parent="C-B6inx4KxPN2ot2ONpx-42" vertex="1">
          <mxGeometry x="30" y="480" width="40" height="40" as="geometry" />
        </mxCell>
        <mxCell id="C-B6inx4KxPN2ot2ONpx-44" value="&lt;div&gt;Enterprise&lt;/div&gt;&lt;div&gt;User&lt;br&gt;&lt;/div&gt;" style="aspect=fixed;perimeter=ellipsePerimeter;html=1;align=center;shadow=0;dashed=0;image;image=img/lib/ibm/users/user.svg;spacingTop=-5;" parent="C-B6inx4KxPN2ot2ONpx-42" vertex="1">
          <mxGeometry x="30" y="340" width="40" height="40" as="geometry" />
        </mxCell>
        <mxCell id="C-B6inx4KxPN2ot2ONpx-45" value="&lt;div&gt;Enterprise&lt;/div&gt;&lt;div&gt;Data&lt;br&gt;&lt;/div&gt;" style="aspect=fixed;perimeter=ellipsePerimeter;html=1;align=center;shadow=0;dashed=0;image;image=img/lib/ibm/data/enterprise_data.svg;fontColor=#000000;spacingTop=-5;" parent="C-B6inx4KxPN2ot2ONpx-42" vertex="1">
          <mxGeometry x="31" y="601" width="40" height="40" as="geometry" />
        </mxCell>
        <mxCell id="C-B6inx4KxPN2ot2ONpx-66" value="" style="html=1;labelBackgroundColor=#ffffff;startArrow=classic;startFill=1;startSize=6;endArrow=classic;endFill=1;endSize=6;jettySize=auto;orthogonalLoop=1;strokeWidth=1;fontSize=14;" parent="C-B6inx4KxPN2ot2ONpx-42" edge="1">
          <mxGeometry width="60" height="60" relative="1" as="geometry">
            <mxPoint x="49.5" y="601" as="sourcePoint" />
            <mxPoint x="49.5" y="550" as="targetPoint" />
            <Array as="points">
              <mxPoint x="49.5" y="580" />
            </Array>
          </mxGeometry>
        </mxCell>
        <mxCell id="C-B6inx4KxPN2ot2ONpx-67" value="" style="html=1;labelBackgroundColor=#ffffff;startArrow=classic;startFill=1;startSize=6;endArrow=classic;endFill=1;endSize=6;jettySize=auto;orthogonalLoop=1;strokeWidth=1;fontSize=14;" parent="C-B6inx4KxPN2ot2ONpx-42" edge="1">
          <mxGeometry width="60" height="60" relative="1" as="geometry">
            <mxPoint x="49.5" y="480" as="sourcePoint" />
            <mxPoint x="49.5" y="410" as="targetPoint" />
          </mxGeometry>
        </mxCell>
        <mxCell id="C-B6inx4KxPN2ot2ONpx-91" value="" style="html=1;labelBackgroundColor=#ffffff;startArrow=classic;startFill=1;startSize=6;endArrow=none;endFill=0;endSize=6;jettySize=auto;orthogonalLoop=1;strokeWidth=1;fontSize=14;" parent="C-B6inx4KxPN2ot2ONpx-42" edge="1">
          <mxGeometry width="60" height="60" relative="1" as="geometry">
            <mxPoint x="49.5" y="340" as="sourcePoint" />
            <mxPoint x="49.5" y="268" as="targetPoint" />
          </mxGeometry>
        </mxCell>
        <mxCell id="C-B6inx4KxPN2ot2ONpx-55" value="" style="edgeStyle=elbowEdgeStyle;rounded=0;elbow=vertical;html=1;labelBackgroundColor=#ffffff;startArrow=classic;startFill=1;startSize=6;endArrow=classic;endFill=1;endSize=6;jettySize=auto;orthogonalLoop=1;strokeWidth=1;fontSize=14;entryX=1;entryY=0.5;entryDx=0;entryDy=0;" parent="1" target="C-B6inx4KxPN2ot2ONpx-24" edge="1">
          <mxGeometry width="60" height="60" relative="1" as="geometry">
            <mxPoint x="167" y="1160" as="sourcePoint" />
            <mxPoint x="210" y="1180" as="targetPoint" />
            <Array as="points">
              <mxPoint x="200" y="1195" />
            </Array>
          </mxGeometry>
        </mxCell>
        <mxCell id="C-B6inx4KxPN2ot2ONpx-92" value="" style="html=1;labelBackgroundColor=#ffffff;startArrow=classic;startFill=1;startSize=6;endArrow=classic;endFill=1;endSize=6;jettySize=auto;orthogonalLoop=1;strokeWidth=1;fontSize=14;entryX=0;entryY=0.5;entryDx=0;entryDy=0;exitX=1;exitY=0.5;exitDx=0;exitDy=0;" parent="1" source="C-B6inx4KxPN2ot2ONpx-25" target="C-B6inx4KxPN2ot2ONpx-43" edge="1">
          <mxGeometry width="60" height="60" relative="1" as="geometry">
            <mxPoint x="939.5" y="1418.5" as="sourcePoint" />
            <mxPoint x="1039.5" y="1418.5" as="targetPoint" />
          </mxGeometry>
        </mxCell>
        <mxCell id="C-B6inx4KxPN2ot2ONpx-103" style="edgeStyle=orthogonalEdgeStyle;rounded=0;orthogonalLoop=1;jettySize=auto;html=1;exitX=0.5;exitY=0;exitDx=0;exitDy=0;endArrow=none;endFill=0;fontColor=#000000;" parent="1" source="C-B6inx4KxPN2ot2ONpx-4" edge="1">
          <mxGeometry relative="1" as="geometry">
            <mxPoint x="570" y="1350" as="targetPoint" />
            <Array as="points">
              <mxPoint x="728" y="1390" />
              <mxPoint x="570" y="1390" />
            </Array>
          </mxGeometry>
        </mxCell>
        <mxCell id="C-B6inx4KxPN2ot2ONpx-108" value="&lt;div&gt;Security &lt;br&gt;&lt;/div&gt;&lt;div&gt;Group 2&lt;/div&gt;" style="fontStyle=0;verticalAlign=top;align=center;spacingTop=-2;fillColor=none;rounded=0;whiteSpace=wrap;html=1;strokeColor=#FF0000;strokeWidth=2;dashed=1;container=0;collapsible=0;spacingLeft=11;" parent="1" vertex="1">
          <mxGeometry x="334" y="1410" width="458" height="119" as="geometry" />
        </mxCell>
        <mxCell id="C-B6inx4KxPN2ot2ONpx-109" value="&lt;div&gt;Security &lt;br&gt;&lt;/div&gt;&lt;div&gt;Group 1&lt;br&gt;&lt;/div&gt;" style="fontStyle=0;verticalAlign=top;align=center;spacingTop=-4;fillColor=none;rounded=0;whiteSpace=wrap;html=1;strokeColor=#FF0000;strokeWidth=2;dashed=1;container=0;collapsible=0;spacingLeft=13;" parent="1" vertex="1">
          <mxGeometry x="332" y="1141" width="462" height="114" as="geometry" />
        </mxCell>
        <mxCell id="C-B6inx4KxPN2ot2ONpx-116" style="edgeStyle=orthogonalEdgeStyle;rounded=0;orthogonalLoop=1;jettySize=auto;html=1;exitX=0.5;exitY=1;exitDx=0;exitDy=0;endArrow=none;endFill=0;fontColor=#000000;" parent="1" source="C-B6inx4KxPN2ot2ONpx-6" edge="1">
          <mxGeometry relative="1" as="geometry">
            <mxPoint x="570" y="1310" as="targetPoint" />
            <Array as="points">
              <mxPoint x="721" y="1280" />
              <mxPoint x="570" y="1280" />
            </Array>
          </mxGeometry>
        </mxCell>
        <mxCell id="C-B6inx4KxPN2ot2ONpx-117" style="edgeStyle=orthogonalEdgeStyle;rounded=0;orthogonalLoop=1;jettySize=auto;html=1;exitX=0.5;exitY=1;exitDx=0;exitDy=0;endArrow=none;endFill=0;fontColor=#000000;" parent="1" source="C-B6inx4KxPN2ot2ONpx-5" edge="1">
          <mxGeometry relative="1" as="geometry">
            <mxPoint x="570" y="1290" as="targetPoint" />
            <Array as="points">
              <mxPoint x="661" y="1280" />
              <mxPoint x="570" y="1280" />
            </Array>
          </mxGeometry>
        </mxCell>
        <mxCell id="C-B6inx4KxPN2ot2ONpx-118" style="edgeStyle=orthogonalEdgeStyle;rounded=0;orthogonalLoop=1;jettySize=auto;html=1;exitX=0.5;exitY=1;exitDx=0;exitDy=0;endArrow=none;endFill=0;fontColor=#000000;" parent="1" source="C-B6inx4KxPN2ot2ONpx-8" edge="1">
          <mxGeometry relative="1" as="geometry">
            <mxPoint x="570" y="1290" as="targetPoint" />
            <Array as="points">
              <mxPoint x="471" y="1280" />
              <mxPoint x="570" y="1280" />
            </Array>
          </mxGeometry>
        </mxCell>
        <mxCell id="dCvMZ2OZZOgdDhihUdpA-1" parent="0" />
        <mxCell id="dCvMZ2OZZOgdDhihUdpA-84" parent="0" />
        <mxCell id="dCvMZ2OZZOgdDhihUdpA-85" value="Connector" parent="0" />
        <mxCell id="dCvMZ2OZZOgdDhihUdpA-86" parent="0" />
        <mxCell id="dCvMZ2OZZOgdDhihUdpA-87" value="Connector" parent="0" />
        <mxCell id="dCvMZ2OZZOgdDhihUdpA-88" parent="0" />
        <mxCell id="dCvMZ2OZZOgdDhihUdpA-89" parent="0" />
        <mxCell id="dCvMZ2OZZOgdDhihUdpA-90" value="Connector" parent="0" />
        <mxCell id="dCvMZ2OZZOgdDhihUdpA-91" parent="0" />
        <mxCell id="dCvMZ2OZZOgdDhihUdpA-92" value="Connector" parent="0" />
      </root>
    </mxGraphModel>
  </diagram>
</mxfile>
